<svg width="44" height="44" viewBox="0 0 44 44" fill="none" xmlns="http://www.w3.org/2000/svg">
  <defs>
    <linearGradient id="catBase" x1="22" y1="6" x2="22" y2="38" gradientUnits="userSpaceOnUse">
      <stop offset="0" stop-color="#FFE7F5"/>
      <stop offset="1" stop-color="#FFCBEA"/>
    </linearGradient>
    <linearGradient id="catOutline" x1="22" y1="6" x2="22" y2="38" gradientUnits="userSpaceOnUse">
      <stop offset="0" stop-color="#F19ADC"/>
      <stop offset="1" stop-color="#E277C9"/>
    </linearGradient>
  </defs>
  <path d="M11.4 14.8L9.2 7.1C8.8 5.7 10.4 4.6 11.7 5.5L17.8 9.6C18.5 10.1 19.4 9.7 19.7 8.9L21.9 3.4C22.3 2.3 23.9 2.3 24.3 3.4L26.5 8.9C26.8 9.7 27.7 10.1 28.4 9.6L34.5 5.5C35.8 4.6 37.4 5.7 37 7.1L34.8 14.8" fill="#F7B7E7"/>
  <path d="M22 38C13.4 38 6.5 31.3 6.5 22.7C6.5 14.1 13.4 7.4 22 7.4C30.6 7.4 37.5 14.1 37.5 22.7C37.5 31.3 30.6 38 22 38Z" fill="url(#catBase)" stroke="url(#catOutline)" stroke-width="1.5"/>
  <path d="M14.5 20.8C15.1 19.6 16.6 19.2 17.8 19.8C18.6 20.2 19.2 20.9 19.3 21.7C19.5 22.5 19.2 23.3 18.6 23.9L16.6 25.8C16.3 26.1 15.8 26.1 15.5 25.8L13.5 23.9C12.9 23.3 12.6 22.4 12.8 21.6C12.9 20.6 13.6 19.9 14.5 20.8Z" fill="#FF5B99"/>
  <path d="M29.5 20.8C30.1 19.6 31.6 19.2 32.8 19.8C33.6 20.2 34.2 20.9 34.3 21.7C34.5 22.5 34.2 23.3 33.6 23.9L31.6 25.8C31.3 26.1 30.8 26.1 30.5 25.8L28.5 23.9C27.9 23.3 27.6 22.4 27.8 21.6C27.9 20.6 28.6 19.9 29.5 20.8Z" fill="#FF5B99"/>
  <path d="M19.4 28.6C20.5 29.6 23.5 29.6 24.6 28.6" stroke="#7A3A7A" stroke-width="1.4" stroke-linecap="round"/>
  <path d="M13.4 25.2H9.6" stroke="#E494DA" stroke-width="1.1" stroke-linecap="round"/>
  <path d="M30.6 25.2H34.4" stroke="#E494DA" stroke-width="1.1" stroke-linecap="round"/>
  <path d="M16.8 32.4C16.8 31.4 17.6 30.6 18.6 30.6H25.4C26.4 30.6 27.2 31.4 27.2 32.4V34.6C27.2 35.6 26.4 36.4 25.4 36.4H18.6C17.6 36.4 16.8 35.6 16.8 34.6V32.4Z" fill="#FFF4FB" stroke="#E6AFE8" stroke-width="1.1"/>
  <path d="M18.3 33.6H25.7" stroke="#D48BDC" stroke-width="1" stroke-linecap="round"/>
</svg>
